<?xml version="1.0" standalone="no"?>
<!DOCTYPE svg PUBLIC "-//W3C//DTD SVG 20010904//EN"
 "http://www.w3.org/TR/2001/REC-SVG-20010904/DTD/svg10.dtd">
<svg version="1.0" xmlns="http://www.w3.org/2000/svg"
 width="281.000000pt" height="180.000000pt" viewBox="0 0 281.000000 180.000000"
 preserveAspectRatio="xMidYMid meet">

<g transform="translate(0.000000,180.000000) scale(0.100000,-0.100000)"
fill="#000000" stroke="none">
<path d="M1151 1733 c-34 -32 -44 -50 -60 -112 -11 -41 -28 -86 -38 -100 -11
-16 -73 -53 -163 -97 -122 -60 -146 -76 -157 -102 -8 -21 -21 -32 -40 -36
-160 -30 -245 -51 -266 -65 -13 -9 -50 -33 -81 -54 -43 -29 -70 -58 -107 -115
-58 -90 -65 -115 -74 -242 -4 -52 -11 -115 -17 -140 -5 -25 -11 -70 -14 -100
l-4 -55 21 45 c13 25 24 73 27 110 3 46 7 59 13 45 14 -36 9 -73 -21 -167 -17
-51 -30 -108 -28 -126 2 -24 -3 -38 -19 -50 -49 -39 -48 -52 14 -192 58 -133
74 -150 104 -114 7 9 15 34 18 57 6 42 6 42 54 47 26 3 112 2 191 -3 80 -5
157 -6 172 -3 14 4 40 20 56 36 27 28 28 32 23 99 -5 69 -5 71 18 71 31 0 134
-34 231 -76 170 -75 359 -105 525 -85 138 17 247 44 335 86 102 48 120 54 193
69 l63 14 0 -78 c0 -75 1 -79 30 -104 36 -30 84 -41 148 -32 96 12 258 17 287
8 26 -7 31 -14 36 -52 6 -43 30 -73 54 -64 7 3 37 62 67 132 53 120 55 129 41
155 -8 15 -24 32 -36 38 -18 8 -22 19 -24 57 -1 26 -13 80 -27 121 -27 77 -33
135 -16 161 7 11 10 1 10 -34 0 -55 29 -158 42 -150 11 7 10 57 -2 89 -6 15
-17 94 -24 175 -15 158 -16 160 -83 261 -40 61 -63 82 -180 160 -22 15 -72 27
-236 59 -52 10 -60 15 -69 41 -9 26 -32 40 -163 104 -151 73 -152 74 -172 122
-12 26 -24 64 -28 83 -11 52 -31 86 -68 114 -68 52 -148 22 -129 -49 5 -16 13
-30 19 -32 12 -4 39 19 45 39 8 22 36 -9 48 -51 5 -20 10 -83 10 -140 0 -123
19 -175 79 -218 20 -15 40 -30 45 -34 4 -4 -1 -18 -13 -30 -28 -30 -28 -59 2
-59 12 -1 46 -22 75 -48 l53 -48 -43 -61 c-24 -34 -65 -87 -92 -117 -40 -46
-55 -75 -82 -159 -19 -56 -34 -107 -34 -114 0 -20 32 -31 93 -31 l59 0 -3 46
c-4 81 -1 88 54 131 62 47 75 50 81 19 23 -112 39 -208 36 -210 -3 -2 -48 -17
-101 -35 -53 -18 -139 -52 -191 -77 -131 -62 -165 -69 -315 -64 l-128 4 -123
57 c-67 32 -161 70 -208 85 l-85 27 6 50 c3 27 10 68 15 90 6 22 12 52 15 68
3 15 11 27 17 27 6 0 36 -19 66 -42 l55 -42 -6 -67 -6 -67 64 0 c102 0 103 4
62 135 -31 100 -41 118 -94 181 -33 38 -75 91 -93 117 l-33 48 54 48 c30 26
64 48 77 49 28 0 30 30 2 55 -11 10 -20 21 -20 25 0 4 20 21 44 38 67 48 84
94 84 224 0 112 12 167 39 190 13 10 17 10 21 0 6 -20 33 -43 45 -39 21 7 27
58 10 83 -25 39 -80 33 -132 -13z m125 2 c4 -8 3 -23 -1 -32 -6 -16 -8 -16
-18 5 -12 26 -20 27 -52 6 -29 -19 -52 -80 -59 -157 -9 -98 -24 -137 -72 -186
-26 -26 -44 -54 -44 -67 0 -15 -13 -33 -35 -50 -38 -29 -35 -55 4 -35 15 9 27
9 41 1 25 -13 26 -30 2 -30 -10 0 -31 -13 -45 -30 -27 -30 -47 -39 -47 -20 0
6 -13 10 -30 10 -29 0 -35 4 -66 45 -9 11 -13 14 -9 8 12 -25 -24 -13 -53 17
-17 17 -36 30 -42 30 -7 0 -8 5 -3 13 4 6 13 30 18 52 9 36 14 41 60 57 69 22
206 95 231 123 11 12 34 62 50 110 36 110 66 145 123 145 28 0 44 -5 47 -15z
m420 1 c21 -15 35 -44 79 -162 29 -81 36 -88 125 -136 36 -19 74 -40 85 -46
11 -6 40 -17 65 -24 41 -12 46 -17 55 -53 6 -22 14 -46 18 -52 5 -9 3 -13 -8
-13 -8 0 -18 -7 -22 -15 -6 -17 -62 -50 -70 -41 -3 3 -14 -6 -25 -19 -13 -17
-30 -25 -49 -25 -16 0 -29 -4 -29 -10 0 -19 -22 -10 -48 20 -15 17 -34 30 -44
30 -24 0 -23 17 2 30 14 8 26 8 41 -1 39 -20 42 6 4 35 -22 17 -35 35 -35 51
0 13 -12 33 -29 47 -15 13 -36 36 -45 51 -22 32 -46 120 -46 167 0 55 -18 105
-46 134 -33 32 -48 33 -61 4 -10 -21 -12 -21 -18 -5 -4 9 -5 24 -1 32 7 20 74
20 102 1z m-556 -343 c-14 -41 -56 -93 -77 -93 -22 0 -15 27 12 44 14 9 34 35
46 57 25 49 36 45 19 -8z m609 10 c10 -21 31 -48 45 -60 28 -25 34 -43 13 -43
-21 0 -62 51 -80 98 -21 52 -4 56 22 5z m-1050 -161 c-28 -25 -33 -38 -40 -97
-8 -67 -8 -70 18 -98 l28 -28 8 26 c5 14 12 25 15 25 4 0 39 -22 77 -48 l70
-47 1 -60 c2 -46 0 -52 -5 -25 -6 29 -8 21 -14 -49 -4 -46 -5 -86 -2 -89 3 -3
5 7 5 22 0 15 4 25 9 22 5 -3 3 -35 -4 -73 -7 -38 -15 -85 -19 -105 -6 -36 -8
-37 -39 -31 -18 3 -38 13 -44 21 -20 25 -16 140 7 187 11 22 19 56 19 75 l-1
35 -12 -40 c-7 -22 -19 -40 -27 -40 -11 0 -15 22 -19 95 l-5 95 -8 -77 c-5
-43 -6 -82 -2 -88 3 -5 2 -10 -3 -10 -5 0 -45 -24 -89 -54 -74 -50 -193 -116
-209 -116 -4 0 -1 7 6 15 23 28 -7 16 -50 -20 -44 -37 -80 -78 -80 -91 0 -4
-12 -23 -26 -42 -20 -26 -24 -36 -14 -42 7 -4 10 -15 7 -24 -4 -9 -2 -16 4
-16 6 0 7 -5 4 -11 -4 -6 -13 -8 -20 -5 -8 3 -27 0 -44 -7 -17 -6 -33 -8 -36
-5 -8 7 30 158 50 203 7 16 15 77 18 135 2 58 8 114 11 125 5 13 2 12 -8 -5
-8 -14 -15 -37 -16 -52 0 -15 -5 -30 -11 -34 -18 -11 -2 80 26 151 14 32 23
61 21 62 -5 5 -32 -39 -40 -64 -4 -13 -11 -23 -16 -23 -16 0 23 89 60 138 19
26 69 70 111 98 64 43 93 55 175 74 55 12 113 26 129 30 52 14 56 11 24 -18z
m1511 14 c179 -38 211 -49 272 -88 35 -22 76 -52 91 -67 43 -39 120 -181 99
-181 -5 0 -16 18 -26 40 -10 22 -22 40 -27 40 -13 0 -11 -12 5 -36 15 -21 46
-129 46 -159 0 -9 -4 -13 -10 -10 -5 3 -10 18 -10 33 -1 15 -8 38 -16 52 -10
16 -13 18 -8 5 3 -11 9 -69 11 -130 3 -60 9 -114 13 -120 8 -11 44 -132 55
-184 7 -33 7 -34 -21 -27 -16 4 -41 7 -57 7 -25 0 -27 2 -21 27 4 15 10 31 15
36 4 5 -3 23 -17 41 -13 17 -24 36 -24 42 0 14 -116 123 -130 123 -10 0 -9 -4
0 -15 7 -8 10 -15 6 -15 -31 0 -311 172 -299 183 3 3 2 40 -2 82 -4 42 -9 74
-13 71 -3 -4 -6 -45 -6 -94 -1 -69 -4 -87 -16 -87 -8 0 -19 17 -26 40 l-12 40
-1 -35 c0 -19 8 -55 19 -79 23 -50 27 -158 8 -183 -12 -14 -78 -34 -78 -23 0
2 -9 49 -20 105 -23 119 -23 110 -10 110 6 0 10 -12 10 -27 0 -14 2 -24 5 -21
3 3 2 43 -2 89 -6 70 -8 78 -14 49 -5 -27 -7 -21 -5 25 l1 60 69 47 c38 27 73
48 77 48 4 0 11 -11 16 -25 l8 -26 28 28 c26 28 26 31 18 98 -7 61 -12 72 -42
97 -18 15 -31 28 -29 28 3 0 34 -6 70 -14z m-1443 -55 c3 -13 17 -21 44 -25
22 -3 48 -15 58 -25 11 -11 29 -24 40 -31 20 -10 20 -12 6 -40 -21 -41 -30
-38 -43 13 -9 38 -10 35 -4 -27 l5 -70 -33 25 c-18 13 -48 35 -68 49 -47 34
-71 68 -79 113 l-6 37 38 0 c28 0 38 -5 42 -19z m1410 -16 c-7 -45 -39 -90
-86 -120 -20 -13 -49 -34 -65 -47 l-29 -22 6 70 c4 43 3 62 -3 49 -5 -11 -9
-30 -9 -42 -1 -31 -18 -29 -35 5 -14 28 -14 29 27 61 23 17 58 34 78 37 25 4
39 13 42 25 4 14 14 19 42 19 37 0 38 0 32 -35z m-1485 -70 c3 -24 0 -35 -9
-35 -8 0 -13 13 -13 35 0 19 4 35 9 35 5 0 11 -16 13 -35z m1508 0 c0 -22 -5
-35 -13 -35 -8 0 -13 9 -11 23 1 12 3 28 3 35 2 29 21 9 21 -23z m-1244 -120
c9 -13 24 -51 34 -82 11 -32 19 -48 19 -35 1 31 19 27 39 -9 9 -18 29 -43 44
-57 38 -34 52 -89 33 -119 -14 -20 -14 -23 -1 -23 34 0 24 -22 -19 -40 -26
-11 -51 -20 -56 -20 -15 0 -10 28 7 38 11 6 13 11 5 16 -14 9 -15 66 -1 66 22
0 8 19 -18 24 -15 4 -41 18 -57 32 -22 18 -24 24 -10 19 46 -16 49 -15 20 1
-44 24 -95 75 -95 95 0 31 23 119 31 119 5 0 16 -11 25 -25z m1002 -28 c6 -29
12 -59 12 -68 0 -18 -53 -70 -95 -93 -28 -16 -25 -16 23 0 9 3 4 -6 -13 -20
-16 -14 -42 -28 -57 -32 -29 -6 -36 -18 -18 -29 13 -8 13 -52 0 -60 -6 -4 -4
-12 5 -21 16 -16 20 -34 8 -34 -18 0 -103 35 -103 42 0 5 7 11 15 14 11 5 12
10 4 26 -16 29 3 88 38 120 16 14 36 39 45 57 20 36 38 40 39 9 0 -13 9 6 21
42 18 59 42 100 57 100 4 0 12 -24 19 -53z m-1032 -134 c-7 -7 -26 7 -26 19 0
6 6 6 15 -2 9 -7 13 -15 11 -17z m-191 -92 c4 -27 4 -69 0 -94 l-7 -44 -55 -7
c-30 -4 -77 -16 -104 -27 l-49 -21 6 -53 c4 -30 4 -65 0 -79 -6 -23 -11 -26
-49 -25 -70 1 -92 17 -24 18 63 1 77 13 57 50 -6 12 -13 56 -15 99 -2 42 -5
86 -7 96 -2 15 6 22 39 32 23 7 74 35 114 63 40 27 76 48 80 45 4 -2 10 -26
14 -53z m1610 -56 c32 -8 39 -14 37 -30 -4 -21 -19 -158 -24 -210 -3 -30 -3
-30 57 -36 l60 -6 -68 -1 -69 -2 4 73 3 72 -44 22 c-24 12 -70 25 -102 29
l-58 6 -7 54 c-6 49 0 117 12 136 3 4 40 -16 82 -45 42 -28 95 -57 117 -62z
m-1877 -37 c15 -15 16 -97 2 -134 -9 -22 -8 -29 5 -36 24 -14 17 -28 -14 -28
-16 0 -34 -7 -41 -15 -7 -8 -19 -15 -26 -15 -19 0 -18 29 1 36 11 5 12 11 5
24 -14 26 -12 49 5 67 14 13 13 17 -10 35 -35 27 -32 52 8 65 45 14 51 15 65
1z m2010 -5 c30 -7 28 -37 -3 -61 -23 -18 -24 -22 -10 -35 17 -17 19 -45 6
-66 -6 -9 -4 -19 5 -28 8 -8 14 -19 14 -24 0 -14 -26 -11 -40 6 -7 8 -25 15
-41 15 -31 0 -38 14 -14 28 13 7 14 14 5 36 -14 38 -13 119 3 135 6 6 21 9 32
6 11 -4 30 -9 43 -12z m-1328 -23 c0 -5 -4 -10 -10 -10 -5 0 -10 5 -10 10 0 6
5 10 10 10 6 0 10 -4 10 -10z m590 0 c0 -5 -4 -10 -10 -10 -5 0 -10 5 -10 10
0 6 5 10 10 10 6 0 10 -4 10 -10z m-1374 -71 c9 -18 13 -51 12 -89 l-3 -60
-57 0 c-32 0 -58 4 -58 10 0 6 6 10 14 10 23 0 26 13 12 54 -13 38 -9 56 28
114 10 17 31 1 52 -39z m2207 7 c22 -40 23 -47 11 -82 -14 -42 -11 -54 14 -55
34 -1 -22 -18 -63 -18 l-40 -1 -3 66 c-2 58 0 70 23 100 14 19 28 34 30 34 2
0 14 -20 28 -44z m-1703 -3 c86 -24 175 -59 330 -129 79 -35 93 -38 199 -42
138 -6 195 6 316 63 111 53 244 100 353 126 89 21 146 17 225 -15 l37 -16 0
-95 0 -94 -56 26 c-50 23 -65 25 -128 20 -89 -8 -153 -27 -284 -84 -257 -110
-545 -121 -784 -27 -248 96 -289 108 -378 108 -66 1 -92 -3 -113 -16 -14 -10
-31 -18 -37 -18 -6 0 -10 35 -10 90 0 101 -2 99 92 125 63 17 120 12 238 -22z
m1624 12 c-4 -8 -11 -12 -16 -9 -6 4 -5 10 3 15 19 12 19 11 13 -6z m-94 -129
c0 -3 -4 -8 -10 -11 -5 -3 -10 -1 -10 4 0 6 5 11 10 11 6 0 10 -2 10 -4z m245
-16 c3 -5 1 -10 -4 -10 -6 0 -11 5 -11 10 0 6 2 10 4 10 3 0 8 -4 11 -10z
m-2215 -40 c83 0 85 -1 101 -29 15 -26 22 -29 87 -33 83 -6 122 -26 122 -63 0
-60 -67 -86 -185 -73 -44 5 -130 8 -192 6 l-112 -3 -17 67 c-9 38 -19 68 -23
68 -3 -1 -17 -7 -31 -15 -58 -33 -102 -5 -60 40 30 32 82 45 160 40 36 -3 103
-5 150 -5z m2308 -17 c31 -23 43 -73 17 -73 -8 0 -32 7 -51 15 -20 8 -39 13
-43 10 -4 -2 -13 -30 -20 -62 -8 -32 -15 -61 -17 -64 -2 -3 -25 -2 -51 2 -26
4 -118 3 -204 -3 -154 -11 -157 -11 -193 11 -30 19 -36 28 -36 57 0 30 5 37
35 50 19 7 50 14 68 14 62 0 94 11 105 36 10 21 18 24 99 27 180 8 261 3 291
-20z m-1998 -23 c0 -39 -1 -40 -22 -28 -13 7 -52 17 -88 24 l-65 11 35 16 c19
9 59 16 88 17 l52 0 0 -40z m1533 23 l32 -17 -57 -8 c-32 -4 -67 -12 -77 -18
-29 -15 -31 -13 -31 25 l0 35 50 0 c29 0 65 -7 83 -17z m-2038 -190 c8 -60 1
-103 -18 -103 -11 0 -103 189 -95 195 2 1 21 8 43 16 l40 15 12 -35 c6 -20 14
-60 18 -88z m2523 101 c8 -4 -88 -199 -99 -199 -20 0 -32 64 -21 105 6 19 15
53 21 76 l11 41 43 -10 c23 -6 43 -12 45 -13z"/>
<path d="M783 1301 c1 -24 9 -38 27 -50 24 -15 25 -15 9 4 -9 11 -21 34 -27
50 l-11 30 2 -34z"/>
<path d="M930 1305 c0 -9 6 -12 15 -9 8 4 15 10 15 15 0 5 -7 9 -15 9 -8 0
-15 -7 -15 -15z"/>
<path d="M2081 1312 c0 -13 -12 -34 -26 -47 -28 -29 -18 -34 15 -7 16 13 21
25 17 47 -3 23 -4 24 -6 7z"/>
<path d="M1900 1310 c0 -5 9 -10 20 -10 11 0 20 5 20 10 0 6 -9 10 -20 10 -11
0 -20 -4 -20 -10z"/>
<path d="M510 1207 c-72 -24 -210 -103 -210 -120 0 -5 8 -3 18 5 34 29 137 81
217 109 44 15 71 28 60 28 -11 0 -49 -10 -85 -22z"/>
<path d="M446 1029 c-3 -8 -14 -57 -25 -109 -24 -110 -31 -136 -60 -208 -27
-69 -6 -56 25 14 13 30 28 54 32 54 5 0 19 -11 32 -25 13 -14 28 -25 33 -25 6
0 -2 11 -17 25 -25 23 -34 45 -18 45 4 0 14 -6 21 -12 7 -7 3 9 -9 36 -11 27
-19 54 -16 60 2 6 11 -6 20 -26 9 -20 20 -39 26 -43 15 -9 12 2 -7 32 -12 18
-18 50 -19 105 -2 77 -9 105 -18 77z"/>
<path d="M2335 1202 c80 -29 184 -82 218 -110 9 -8 17 -11 17 -6 0 28 -196
126 -275 139 -28 4 -16 -3 40 -23z"/>
<path d="M2405 957 c-1 -62 -5 -89 -19 -109 -10 -16 -14 -28 -7 -28 6 0 18 16
26 37 23 56 28 32 6 -27 -11 -30 -15 -48 -9 -42 7 7 16 12 20 12 16 0 7 -22
-18 -45 -15 -14 -23 -25 -17 -25 5 0 20 11 33 25 13 14 27 25 32 25 4 0 19
-24 32 -54 31 -70 52 -83 25 -14 -35 87 -38 98 -62 212 -12 60 -27 111 -32
113 -6 2 -10 -31 -10 -80z"/>
<path d="M716 514 c-32 -32 -10 -90 30 -82 10 2 20 10 22 18 4 13 3 13 -11 2
-21 -18 -37 -7 -37 24 0 28 28 44 40 23 5 -7 13 -10 17 -5 8 7 -23 36 -38 36
-4 0 -15 -7 -23 -16z"/>
<path d="M2117 475 c-16 -45 -12 -56 11 -33 10 10 17 10 33 0 12 -8 22 -12 24
-10 5 6 -35 88 -44 88 -5 0 -16 -20 -24 -45z m29 -12 c-11 -11 -19 6 -11 24 8
17 8 17 12 0 3 -10 2 -21 -1 -24z"/>
<path d="M857 449 l-29 -40 28 7 c20 5 30 2 41 -11 11 -17 13 -13 13 33 0 64
-14 67 -53 11z m40 -16 c-3 -3 -11 -2 -17 2 -8 5 -7 11 2 22 12 15 13 14 16
-1 2 -10 1 -20 -1 -23z"/>
<path d="M1964 473 c3 -10 8 -31 12 -46 5 -23 11 -28 28 -23 11 3 24 6 29 6 4
0 7 4 7 8 0 5 -10 8 -22 8 -16 -1 -24 7 -30 32 -5 17 -13 32 -19 32 -6 0 -8
-8 -5 -17z"/>
<path d="M995 414 c-18 -44 -19 -65 -1 -42 7 10 20 15 32 12 12 -3 26 2 34 11
13 15 11 20 -9 36 -32 26 -39 24 -56 -17z m51 5 c3 -6 2 -15 -2 -19 -12 -12
-38 5 -30 19 9 14 23 14 32 0z"/>
<path d="M1840 400 c0 -49 12 -66 24 -34 4 11 13 14 31 10 14 -4 25 -3 25 1
-1 13 -59 73 -70 73 -5 0 -10 -22 -10 -50z m40 -1 c0 -5 -4 -9 -10 -9 -5 0
-10 7 -10 16 0 8 5 12 10 9 6 -3 10 -10 10 -16z"/>
<path d="M1707 388 c-29 -10 -29 -16 -4 -78 9 -23 11 -23 15 -5 7 34 22 42 38
21 20 -28 24 -17 11 26 -14 44 -22 49 -60 36z m38 -17 c8 -14 -13 -24 -33 -16
-14 5 -14 7 -2 15 19 12 27 12 35 1z"/>
<path d="M1123 349 c-10 -38 -9 -41 14 -50 31 -11 43 -11 43 0 0 5 -10 11 -22
13 -13 2 -21 8 -18 13 3 6 15 9 28 7 30 -4 28 6 -4 18 -32 13 -23 29 13 23 22
-4 25 -2 13 6 -33 23 -55 13 -67 -30z"/>
<path d="M1550 338 c0 -53 11 -68 46 -68 19 0 34 4 34 9 0 6 -11 9 -24 8 -31
-3 -39 17 -8 21 12 2 22 8 22 14 0 6 -10 8 -26 4 -34 -9 -28 16 7 25 20 6 18
7 -13 8 -33 1 -38 -2 -38 -21z"/>
<path d="M1412 305 c-1 -43 1 -46 9 -25 l10 25 19 -25 c10 -14 22 -21 26 -17
4 4 -1 16 -11 27 -17 19 -17 21 0 40 10 11 13 20 8 20 -6 0 -16 -7 -23 -15
-16 -20 -27 -19 -33 3 -3 9 -5 -5 -5 -33z"/>
<path d="M1393 1688 c-11 -13 -26 -33 -32 -45 -9 -19 -19 -22 -55 -21 -25 1
-51 -4 -60 -11 -22 -19 -20 -63 5 -95 l21 -26 -26 -31 c-31 -37 -34 -84 -7
-99 11 -5 39 -10 63 -10 41 0 44 -2 60 -40 10 -24 27 -45 43 -52 25 -11 30
-10 56 20 16 18 29 39 29 47 0 11 12 14 48 12 80 -3 103 34 61 102 -11 19 -17
37 -12 40 19 13 43 56 43 78 0 30 -37 53 -87 53 -33 0 -43 4 -48 20 -9 28 -54
80 -69 80 -7 0 -22 -10 -33 -22z m69 -20 c32 -48 31 -65 -2 -77 -39 -13 -102
12 -92 38 13 37 36 61 57 61 13 0 29 -10 37 -22z m-117 -67 c3 -5 1 -12 -4
-15 -5 -3 -7 -14 -4 -25 3 -13 -5 -25 -27 -41 -30 -22 -32 -22 -46 -4 -18 25
-28 60 -20 79 6 17 91 22 101 6z m59 -19 c8 -5 -30 -31 -46 -32 -6 0 -5 28 1
47 1 3 32 -8 45 -15z m203 -3 c19 -17 16 -34 -13 -69 l-27 -31 -27 26 c-33 32
-45 82 -21 89 23 6 72 -2 88 -15z m-107 -20 c0 -19 -1 -19 -26 -2 -24 15 -25
17 -8 24 25 9 34 2 34 -22z m-36 -10 c33 -19 36 -24 36 -70 0 -47 -2 -49 -39
-69 -38 -19 -71 -18 -71 1 0 5 -7 9 -15 9 -23 0 -18 -18 8 -26 21 -7 21 -7 2
-15 -33 -13 -37 -10 -34 19 1 15 -1 34 -5 44 -4 9 -6 31 -4 49 2 27 11 38 43
56 22 13 41 23 42 23 1 0 18 -9 37 -21z m-134 -76 c0 -27 1 -61 3 -78 2 -27
-1 -30 -30 -33 -69 -7 -93 37 -49 91 20 25 24 26 36 13 7 -9 17 -16 23 -16 5
0 3 8 -6 18 -15 17 -15 19 0 35 10 9 19 17 20 17 2 0 3 -21 3 -47z m212 20
c17 -15 17 -17 2 -35 -25 -27 -34 -22 -34 17 0 39 5 42 32 18z m58 -83 c17
-42 0 -60 -57 -60 l-45 0 7 33 c4 17 18 42 32 55 29 26 43 20 63 -28z m-106
-22 c-9 -31 -9 -31 -35 -18 l-22 13 24 13 c34 19 41 17 33 -8z m-19 -40 c17
-15 -25 -78 -52 -78 -23 0 -63 49 -63 77 0 30 79 31 115 1z"/>
<path d="M1429 1498 c11 -15 11 -21 0 -35 -12 -17 -12 -17 6 0 19 17 19 17 0
35 -18 16 -18 16 -6 0z"/>
<path d="M1402 1480 c0 -14 2 -19 5 -12 2 6 2 18 0 25 -3 6 -5 1 -5 -13z"/>
<path d="M1189 1186 c-2 -2 -3 -88 -1 -190 l3 -186 84 0 c92 0 115 -5 115 -26
0 -21 43 -17 58 6 11 18 23 20 107 20 l95 0 0 190 0 190 -93 0 c-68 0 -99 -4
-115 -16 -20 -14 -24 -14 -44 0 -16 12 -47 16 -114 16 -50 0 -93 -2 -95 -4z
m205 -48 c12 -17 16 -50 16 -146 0 -109 -2 -123 -16 -118 -9 3 -54 6 -100 6
l-84 0 0 140 0 140 84 0 c76 0 86 -2 100 -22z m236 -118 l0 -140 -84 0 c-46 0
-91 -3 -100 -6 -14 -5 -16 9 -16 124 0 163 -1 162 116 162 l84 0 0 -140z
m-232 -172 c9 -9 18 -9 37 0 14 7 64 12 110 12 69 0 85 -3 85 -15 0 -12 -16
-15 -87 -15 -73 0 -90 -3 -108 -20 l-22 -20 -18 20 c-15 17 -31 20 -102 20
-67 0 -83 3 -83 15 0 12 16 15 88 15 54 0 93 -5 100 -12z"/>
<path d="M1395 691 c-33 -4 -69 -12 -81 -18 -16 -9 -24 -9 -33 0 -9 9 -25 -2
-68 -45 -56 -56 -57 -57 -28 -55 27 2 33 -4 56 -51 25 -50 70 -89 89 -77 4 3
11 -2 14 -11 3 -8 11 -14 18 -13 7 1 21 -2 32 -6 11 -5 26 -3 38 4 15 9 23 9
34 0 8 -6 21 -8 31 -4 10 5 25 9 33 11 8 2 16 8 18 13 2 6 15 11 28 11 13 0
25 5 25 10 1 6 2 14 3 19 0 5 4 13 9 17 4 4 7 18 7 30 0 27 38 67 57 60 24
-10 13 9 -39 61 -42 43 -53 50 -62 38 -10 -13 -16 -13 -51 0 -22 8 -47 14 -55
13 -8 -1 -42 -4 -75 -7z m25 -31 c20 -20 20 -20 -11 -35 -17 -9 -29 -22 -26
-28 6 -19 56 -20 83 -2 24 15 27 14 84 -26 33 -23 60 -48 60 -55 0 -21 -19
-17 -57 12 -19 14 -36 24 -39 21 -2 -2 14 -17 36 -32 38 -26 53 -55 28 -55 -6
0 -25 10 -42 23 -52 39 -63 41 -21 4 34 -31 38 -36 22 -42 -10 -5 -25 -1 -35
7 -32 28 -47 31 -24 6 15 -17 20 -28 13 -33 -14 -8 -31 2 -31 19 0 18 -68 86
-85 86 -8 0 -15 4 -15 9 0 20 -30 18 -60 -4 -35 -26 -50 -25 -50 5 0 10 -11
27 -25 37 l-24 18 31 34 c24 27 34 32 47 24 13 -8 23 -6 40 8 30 25 76 24 101
-1z m146 9 c22 0 41 -10 62 -32 l31 -32 -28 -31 -28 -31 -55 42 c-54 42 -54
42 -77 24 -24 -20 -71 -26 -71 -10 0 5 17 20 38 33 33 21 35 23 15 26 -13 2
-23 8 -23 14 0 6 19 8 53 4 28 -4 66 -7 83 -7z m-216 -138 c0 -12 -54 -51 -69
-51 -19 0 -12 18 15 39 28 22 54 28 54 12z m40 -20 c0 -15 -70 -62 -82 -55 -8
5 0 17 22 36 34 28 60 36 60 19z m28 -28 c-4 -21 -54 -51 -65 -39 -8 8 44 56
60 56 5 0 7 -8 5 -17z m13 -46 c-11 -12 -24 -18 -27 -14 -10 10 27 48 38 41 6
-4 1 -16 -11 -27z"/>
</g>
</svg>
